<svg height="512" viewBox="0 0 512 512" width="512" xmlns="http://www.w3.org/2000/svg" xmlns:xlink="http://www.w3.org/1999/xlink"><linearGradient id="a" gradientUnits="userSpaceOnUse" x1="-69.694" x2="441.503" y1="469.694" y2="-41.503" data-name="New Gradient Swatch 1"><stop offset="0" stop-color="#003f8a"/><stop offset=".518" stop-color="#00d7df"/><stop offset="1" stop-color="#006df0"/></linearGradient><linearGradient id="b" x1="-21.694" x2="489.503" xlink:href="#a" y1="517.694" y2="6.497"/><linearGradient id="c" x1="27.555" x2="538.752" xlink:href="#a" y1="566.943" y2="55.746"/><g><circle cx="208" cy="192" fill="url(#a)" r="16"/><circle cx="304" cy="192" fill="url(#b)" r="16"/><path d="m406.4 360.57-86.4-22.74v-27.48c20.29-15.67 37.55-37.47 44.6-62.35h23.4a28.031 28.031 0 0 0 28-28v-56a28.031 28.031 0 0 0 -28-28h-20v-16a112 112 0 0 0 -224 0v16h-20a28.031 28.031 0 0 0 -28 28v56a28.031 28.031 0 0 0 28 28h4v32a8 8 0 0 0 8 8h32.91a142.581 142.581 0 0 0 23.09 22.35v27.48l-86.39 22.74a88.046 88.046 0 0 0 -65.61 85.1v50.33a8 8 0 0 0 8 8h416a8 8 0 0 0 8-8v-50.33a88.048 88.048 0 0 0 -65.6-85.1zm-14.4-207.87a12.014 12.014 0 0 1 8 11.3v56a12.014 12.014 0 0 1 -8 11.3zm-24-.7h8v80h-8zm-248 79.3a12.014 12.014 0 0 1 -8-11.3v-56a12.014 12.014 0 0 1 8-11.3zm214.36 126.86-33.27 63.24-32.33-15.84 46-52.56zm-78.36 37.69-48-54.86v-19.89c16.38 9.48 33.46 14.9 48 14.9s31.62-5.42 48-14.9v19.89zm-96-275.85a96 96 0 0 1 192 0v27.31a79.215 79.215 0 0 1 -41.3-31.53 8.009 8.009 0 0 0 -10.76-2.37c-.61.36-59.45 35.26-139.94 37.48zm-24 32h8v80h-8zm8 120v-24h3.4a103.55 103.55 0 0 0 10.34 24zm46.51 16h34.87a24.031 24.031 0 0 0 22.62 16h16a24 24 0 0 0 0-48h-16a24.031 24.031 0 0 0 -22.62 16h-48.76c-14.07-19.68-16.62-37.63-16.62-48v-57.11c70.26-1.8 123.83-26.71 141.78-36.2a93.971 93.971 0 0 0 50.22 33.25v60.06c0 13.75-4.46 40.8-34.34 67.58-19.26 17.26-43.47 28.42-61.66 28.42s-42.4-11.16-61.66-28.42c-1.33-1.19-2.6-2.39-3.83-3.58zm49.49-8a8.011 8.011 0 0 1 8-8h16a8 8 0 0 1 0 16h-16a8.011 8.011 0 0 1 -8-8zm-42.76 73 45.92 52.48-31.73 15.86-33.31-63.31zm28.51 135h-113.75v-32a8 8 0 0 0 -16 0v32h-40v-42.33a72.027 72.027 0 0 1 53.68-69.62l52.56-13.84 38.68 73.51a8.011 8.011 0 0 0 10.66 3.44l5.64-2.83 14.3 28.6zm16.5 0 4-16h19.69l4.5 16zm24.81-32h-22.12l-13.41-26.82 24.28-12.14 24.68 12.08zm188.94 32h-40v-32a8 8 0 0 0 -16 0v32h-112.94l-6.52-23.19 14.32-28.65 6.17 3.02a7.882 7.882 0 0 0 3.51.82 8 8 0 0 0 7.09-4.28l38.61-73.38 52.09 13.71a72.03 72.03 0 0 1 53.67 69.62z" fill="url(#c)"/></g></svg>