<?xml version="1.0"?>
<svg xmlns="http://www.w3.org/2000/svg" xmlns:xlink="http://www.w3.org/1999/xlink" width="512" height="512" viewBox="0 0 512 512"><defs><linearGradient id="a" data-name="New Gradient Swatch 1" x1="23.977" y1="496.023" x2="589.011" y2="-69.011" gradientUnits="userSpaceOnUse"><stop offset="0" stop-color="#003f8a"/><stop offset="0.518" stop-color="#00d7df"/><stop offset="1" stop-color="#006df0"/></linearGradient><linearGradient id="b" x1="-0.023" y1="472.023" x2="564.998" y2="-92.998" xlink:href="#a"/><linearGradient id="c" x1="25.977" y1="498.023" x2="591.011" y2="-67.011" xlink:href="#a"/><linearGradient id="d" x1="-8.023" y1="464.023" x2="557.011" y2="-101.011" xlink:href="#a"/><linearGradient id="e" x1="-68.023" y1="404.023" x2="497.011" y2="-161.011" xlink:href="#a"/><linearGradient id="f" x1="-90.023" y1="382.023" x2="475.011" y2="-183.011" xlink:href="#a"/><linearGradient id="g" x1="63.977" y1="536.023" x2="629.011" y2="-29.011" xlink:href="#a"/><linearGradient id="h" x1="75.977" y1="548.023" x2="641.011" y2="-17.011" xlink:href="#a"/><linearGradient id="i" x1="79.727" y1="551.773" x2="644.761" y2="-13.261" xlink:href="#a"/><linearGradient id="j" x1="125.977" y1="598.023" x2="691.011" y2="32.989" xlink:href="#a"/><linearGradient id="k" x1="99.977" y1="572.023" x2="665.011" y2="6.989" xlink:href="#a"/><linearGradient id="l" x1="103.727" y1="575.773" x2="668.761" y2="10.739" xlink:href="#a"/><linearGradient id="m" x1="149.977" y1="622.023" x2="715.011" y2="56.989" xlink:href="#a"/></defs><g><path d="M472,96H368V75.82l10.97-4.39a8,8,0,0,0,0-14.86l-120-48a8.023,8.023,0,0,0-5.94,0l-120,48a8,8,0,0,0,0,14.86L168,85.42V96H40A32.03,32.03,0,0,0,8,128V400a32.03,32.03,0,0,0,32,32H204.9l-10.67,32H168a8,8,0,0,0-8,8v24a8,8,0,0,0,8,8H344a8,8,0,0,0,8-8V472a8,8,0,0,0-8-8H317.77L307.1,432H472a32.03,32.03,0,0,0,32-32V128A32.03,32.03,0,0,0,472,96ZM368,208a8,8,0,1,1-8-8A8.011,8.011,0,0,1,368,208ZM157.54,64,256,24.62,354.46,64,256,103.38ZM352,82.22V96h-8V85.42Zm-24,9.6v78.7c-47.8,17.85-96.2,17.85-144,0V91.82l69.03,27.61a8.023,8.023,0,0,0,5.94,0ZM336,480v8H176v-8ZM211.1,464l10.67-32h68.46l10.67,32ZM488,400a16.021,16.021,0,0,1-16,16H40a16.021,16.021,0,0,1-16-16V384H488Zm0-32H24V128a16.021,16.021,0,0,1,16-16H168v64a8.006,8.006,0,0,0,5.03,7.43c27.53,11.01,55.25,16.51,82.97,16.51s55.44-5.5,82.97-16.51A8.006,8.006,0,0,0,344,176V112h8v72a8.451,8.451,0,0,0,.12,1.34,24,24,0,1,0,15.76,0A8.451,8.451,0,0,0,368,184V112H472a16.021,16.021,0,0,1,16,16Z" fill="url(#a)"/><path d="M96,392H48a8,8,0,0,0,0,16H96a8,8,0,0,0,0-16Z" fill="url(#b)"/><path d="M128,392h-8a8,8,0,0,0,0,16h8a8,8,0,0,0,0-16Z" fill="url(#c)"/><path d="M80,352H240a8,8,0,0,0,8-8V248a8,8,0,0,0-8-8H80a8,8,0,0,0-8,8v96A8,8,0,0,0,80,352Zm8-96H232v80H88Z" fill="url(#d)"/><path d="M80,232h64a8,8,0,0,0,0-16H80a8,8,0,0,0,0,16Z" fill="url(#e)"/><path d="M80,208h24a8,8,0,0,0,0-16H80a8,8,0,0,0,0,16Z" fill="url(#f)"/><path d="M272,256H432a8,8,0,0,0,0-16H272a8,8,0,0,0,0,16Z" fill="url(#g)"/><path d="M272,280H432a8,8,0,0,0,0-16H272a8,8,0,0,0,0,16Z" fill="url(#h)"/><path d="M272,304H399a8,8,0,0,0,0-16H272a8,8,0,0,0,0,16Z" fill="url(#i)"/><path d="M432,288h-8a8,8,0,0,0,0,16h8a8,8,0,0,0,0-16Z" fill="url(#j)"/><path d="M272,328H432a8,8,0,0,0,0-16H272a8,8,0,0,0,0,16Z" fill="url(#k)"/><path d="M272,352H399a8,8,0,0,0,0-16H272a8,8,0,0,0,0,16Z" fill="url(#l)"/><path d="M432,336h-8a8,8,0,0,0,0,16h8a8,8,0,0,0,0-16Z" fill="url(#m)"/></g></svg>
